<svg xmlns="http://www.w3.org/2000/svg" fill="none" viewBox="0 0 16 16">
  <path fill="#fff" fill-rule="evenodd" d="M5.5 1.5h-3a2 2 0 0 0-2 2v9a2 2 0 0 0 2 2h4.094a5.75 5.75 0 0 1 8.676-7.342l.092-.668a.87.87 0 0 0-.862-.99 2 2 0 0 0-2-2H8l-.9-1.2a2 2 0 0 0-1.6-.8Zm3.5 10a.5.5 0 0 1 .5-.5h2.793l-1.147-1.146a.5.5 0 0 1 .708-.708l2 2a.5.5 0 0 1 0 .708l-2 2a.5.5 0 0 1-.708-.708L12.293 12H9.5a.5.5 0 0 1-.5-.5Z"/>
  <path fill="#000" fill-rule="evenodd" d="M0 3.5A2.5 2.5 0 0 1 2.5 1h3a2.5 2.5 0 0 1 2 1l.75 1h4.25a2.5 2.5 0 0 1 2.499 2.416c.545.421.863 1.115.76 1.86l-.044.313a5.78 5.78 0 0 0-.968-.835 1 1 0 0 0-.97-.754h-.595a5.75 5.75 0 0 0-1.682-.25A5.75 5.75 0 0 0 9.818 6H4.223a1 1 0 0 0-.98.798l-1.447 7.027c.21.112.45.175.704.175h3.82c.172.355.38.69.618 1H2.5A2.5 2.5 0 0 1 0 12.5v-9Zm13.916 1.505A1.5 1.5 0 0 0 12.5 4H7.75L6.7 2.6A1.5 1.5 0 0 0 5.5 2h-3A1.5 1.5 0 0 0 1 3.5v9c0 .062.004.122.01.182l1.254-6.085A2 2 0 0 1 4.223 5h9.554c.047 0 .093.002.14.005ZM11.5 7a4.5 4.5 0 1 1 0 9 4.5 4.5 0 0 1 0-9Zm-2 4a.5.5 0 0 0 0 1h2.793l-1.147 1.146a.5.5 0 0 0 .708.708l2-2a.5.5 0 0 0 0-.708l-2-2a.5.5 0 0 0-.708.708L12.293 11H9.5Z"/>
</svg>
